<?xml version="1.0" standalone="no"?>
<!DOCTYPE svg PUBLIC "-//W3C//DTD SVG 20010904//EN"
 "http://www.w3.org/TR/2001/REC-SVG-20010904/DTD/svg10.dtd">
<svg version="1.0" xmlns="http://www.w3.org/2000/svg"
 width="639.000000pt" height="639.000000pt" viewBox="0 0 639.000000 639.000000"
 preserveAspectRatio="xMidYMid meet">
<metadata>
Created by potrace 1.11, written by Peter Selinger 2001-2013
</metadata>
<g transform="translate(0.000000,639.000000) scale(0.100000,-0.100000)"
fill="#000000" stroke="none">
<path d="M2576 6040 c-21 -11 -62 -37 -91 -59 -29 -22 -66 -43 -81 -47 -16 -3
-34 -13 -41 -21 -7 -9 -19 -13 -27 -10 -9 4 -28 -5 -45 -18 -16 -14 -32 -25
-35 -25 -3 0 -6 22 -6 49 0 52 -16 76 -45 65 -15 -6 -17 -17 -11 -96 5 -87 -5
-112 -19 -45 -10 44 -24 59 -48 51 -16 -5 -19 -3 -15 14 8 30 -7 50 -29 36
-24 -15 -44 -139 -50 -303 -4 -123 -5 -125 -36 -162 -18 -20 -42 -54 -53 -76
-12 -21 -39 -69 -61 -108 -22 -38 -44 -81 -48 -95 -4 -14 -13 -38 -20 -55 -40
-95 -78 -206 -97 -282 -20 -78 -22 -113 -22 -318 0 -261 6 -299 65 -424 28
-61 38 -93 34 -111 -7 -28 -52 -120 -108 -220 -35 -65 -36 -66 -64 -285 -3
-26 4 -73 22 -135 44 -161 54 -228 54 -381 l1 -145 -50 -73 c-27 -40 -50 -77
-50 -82 0 -5 -4 -9 -9 -9 -5 0 -12 -9 -16 -19 -3 -11 -24 -37 -45 -59 -22 -22
-40 -43 -40 -48 0 -4 -19 -26 -42 -49 -24 -23 -88 -89 -144 -146 -56 -57 -168
-167 -250 -244 -82 -77 -196 -189 -254 -250 -189 -199 -254 -260 -337 -318
-45 -31 -85 -57 -88 -57 -3 0 -42 -24 -88 -53 -45 -29 -98 -60 -117 -70 -19
-9 -53 -32 -74 -51 -22 -19 -52 -40 -67 -46 -27 -11 -27 -13 -28 -107 l-1 -94
32 22 c17 13 63 38 102 57 39 18 80 42 91 52 11 10 45 31 75 47 48 25 122 74
155 101 6 5 24 17 40 27 17 10 41 29 55 41 14 12 50 40 80 61 98 67 151 107
229 169 102 81 371 328 396 362 10 15 28 36 40 47 11 11 42 50 68 86 26 37 64
84 85 106 41 44 77 85 79 93 1 3 22 27 47 55 25 27 46 57 46 67 0 9 9 22 19
28 18 9 19 7 15 -18 -9 -54 -27 -127 -34 -137 -7 -9 -30 -105 -67 -270 -8 -38
-24 -108 -35 -154 -17 -70 -20 -122 -22 -305 -1 -200 1 -230 23 -321 13 -55
34 -122 46 -150 13 -27 27 -61 30 -75 4 -14 15 -36 25 -50 9 -14 25 -42 34
-62 l18 -37 -34 -37 c-18 -21 -61 -68 -95 -106 -35 -37 -63 -71 -63 -76 0 -5
-39 -10 -87 -11 -49 -1 -113 -6 -143 -11 -158 -28 -185 -25 -140 20 18 18 33
20 147 20 137 0 165 7 147 37 -10 15 -29 18 -132 21 -113 2 -120 4 -115 22 5
18 16 20 137 22 125 3 131 4 134 24 3 19 -3 22 -36 26 -81 7 -423 -10 -438
-22 -27 -23 3 -40 72 -40 35 0 64 -4 64 -9 0 -25 -34 -41 -84 -41 -59 0 -93
-18 -83 -44 5 -14 18 -17 54 -16 27 1 51 1 56 1 4 -1 1 -14 -8 -31 -12 -23
-24 -31 -55 -36 -62 -10 -82 -54 -24 -54 30 0 30 -8 -1 -66 -31 -57 -33 -94
-6 -94 12 0 29 17 45 45 15 25 28 45 30 45 2 0 3 -25 3 -55 0 -69 16 -88 87
-105 59 -14 186 -9 249 10 88 26 103 158 23 211 -14 9 -63 16 -141 19 -78 4
-108 8 -85 12 74 13 187 30 235 35 28 3 55 9 61 14 11 9 83 -7 98 -22 6 -5 18
-9 27 -9 17 0 18 -4 35 -155 6 -61 26 -87 49 -65 12 13 13 30 3 112 -6 53 -7
105 -4 115 7 17 8 17 22 -2 13 -17 18 -18 46 -7 17 6 34 10 36 7 3 -2 -7 -40
-22 -84 -30 -91 -35 -161 -11 -161 22 0 39 33 75 146 l32 101 37 -1 36 -1 3
-122 3 -122 -28 -3 c-20 -2 -29 -9 -31 -24 -3 -18 3 -22 30 -26 18 -3 38 -4
43 -1 22 8 38 51 43 115 l5 67 62 -6 c51 -5 63 -3 68 10 9 24 -20 47 -61 48
-20 1 -46 2 -57 3 -16 1 -21 9 -23 44 l-3 44 33 -8 c41 -9 80 -7 88 5 9 16 54
28 77 22 22 -6 22 -6 -7 -26 -31 -21 -39 -35 -19 -35 6 0 8 -7 5 -16 -5 -13
-2 -15 14 -11 11 3 20 0 20 -6 0 -8 4 -7 9 2 6 9 14 11 26 4 12 -7 14 -13 6
-17 -14 -9 -15 -137 -1 -168 16 -34 69 -65 128 -73 67 -9 196 3 219 21 17 13
17 15 -2 29 -14 11 -29 13 -55 8 -19 -5 -73 -7 -119 -7 -109 2 -123 16 -119
116 2 57 0 70 -17 82 -19 15 -19 15 7 16 15 0 30 5 33 10 8 13 25 13 25 -1 0
-5 -5 -7 -10 -4 -6 3 -10 1 -10 -4 0 -6 5 -11 11 -11 5 0 8 -4 5 -9 -9 -13 35
-21 53 -10 13 8 12 9 -6 6 -13 -3 -23 -1 -23 4 0 5 10 9 22 9 12 0 34 12 49
26 25 24 30 25 63 14 39 -13 76 -52 76 -81 0 -10 -5 -30 -12 -44 -9 -20 -18
-25 -50 -25 -31 0 -38 -4 -38 -20 0 -37 59 -51 109 -26 33 18 51 54 51 106 0
22 5 40 10 40 6 0 10 -4 10 -9 0 -4 21 -14 46 -21 43 -12 48 -12 60 5 13 17
14 17 14 2 0 -9 5 -17 11 -17 8 0 8 -5 -1 -15 -10 -12 -10 -15 3 -15 9 0 18 8
20 18 4 13 5 11 6 -5 1 -25 28 -32 37 -10 2 7 14 14 27 14 12 1 23 7 25 13 2
5 8 8 13 4 15 -9 10 -21 -11 -27 -14 -4 -20 -14 -20 -35 0 -17 -5 -43 -11 -59
-26 -64 -8 -116 28 -80 15 15 45 119 44 154 -1 16 4 21 14 17 8 -4 15 -2 15 3
0 5 7 18 16 29 15 19 15 18 11 -3 -3 -12 -2 -22 2 -21 18 2 22 -4 10 -18 -20
-24 -12 -115 13 -142 18 -18 32 -22 87 -22 104 1 180 44 138 79 -10 8 -28 6
-70 -9 -65 -23 -93 -25 -104 -7 -10 15 -11 117 0 117 4 0 7 -4 7 -8 0 -4 8 -8
19 -8 12 0 17 5 14 14 -3 7 -11 11 -19 8 -7 -3 -17 7 -23 25 -10 29 -10 29 27
29 20 1 73 7 117 15 43 8 80 13 81 12 1 -1 -1 -16 -3 -34 -3 -20 -12 -33 -25
-36 -15 -4 -18 -11 -13 -29 9 -29 95 -108 115 -105 27 4 24 47 -6 78 -20 21
-25 32 -17 40 14 14 53 2 53 -16 0 -22 37 -28 64 -10 19 13 25 13 29 3 4 -9 8
-10 14 -2 4 6 17 14 29 18 18 5 22 0 33 -44 19 -75 38 -92 104 -98 68 -5 147
12 205 45 47 26 54 24 76 -19 13 -26 53 -37 61 -15 11 26 -97 227 -121 227 -8
0 -14 6 -14 13 -1 8 -5 7 -13 -4 -7 -9 -17 -14 -23 -12 -7 2 -18 -3 -27 -11
-8 -8 -17 -12 -21 -9 -3 4 -6 1 -6 -5 0 -7 -11 -12 -25 -12 -24 0 -24 -1 -8
-20 10 -11 20 -15 23 -9 4 5 14 7 22 4 8 -3 23 1 32 11 9 9 18 15 20 13 1 -2
12 -17 24 -33 12 -16 22 -33 22 -38 0 -13 -105 -58 -159 -68 -52 -9 -85 0
-101 30 -10 18 -6 30 21 76 18 30 42 57 54 60 11 4 38 19 60 34 42 29 193 85
203 75 3 -3 0 -5 -6 -5 -6 0 -9 -7 -6 -15 4 -8 -1 -17 -9 -21 -13 -5 -13 -9 0
-35 8 -16 12 -33 8 -39 -9 -15 7 -12 31 4 11 8 46 16 77 18 63 3 70 9 30 24
l-28 10 23 13 c18 10 26 10 38 0 13 -11 34 -9 98 7 22 5 26 3 26 -14 0 -26 14
-35 40 -27 14 5 20 15 20 37 0 28 2 30 27 23 15 -3 32 -14 39 -23 10 -14 34
-16 163 -17 131 0 152 2 156 16 9 28 -34 127 -76 175 -21 25 -39 49 -39 53 0
4 -21 23 -47 41 -27 18 -50 35 -52 37 -2 1 14 25 37 52 23 27 49 66 58 87 10
22 25 57 35 79 10 22 25 71 33 108 7 37 21 76 30 86 9 10 16 22 16 28 0 6 19
35 43 64 23 30 54 78 69 109 30 63 28 70 -33 137 -22 24 -39 47 -39 52 0 6
-10 19 -21 30 l-21 20 33 34 c19 19 44 37 56 41 20 6 23 2 34 -54 6 -33 15
-60 19 -60 4 0 10 -31 12 -68 3 -38 12 -79 20 -93 9 -13 19 -37 22 -53 4 -15
15 -40 25 -55 55 -80 123 -184 129 -199 18 -42 48 -82 61 -82 8 0 25 10 37 21
30 28 50 19 73 -33 11 -24 30 -56 43 -72 l24 -29 66 31 c36 18 82 35 103 40
36 7 39 11 51 60 14 53 14 54 -15 95 -16 23 -41 54 -56 70 -17 18 -24 34 -20
46 8 27 -17 83 -63 139 -21 26 -49 63 -61 83 -11 20 -46 56 -76 79 -30 23 -55
46 -55 50 0 4 -26 21 -58 38 -32 17 -66 40 -77 52 -10 11 -23 20 -29 20 -15 0
-52 59 -60 96 -8 36 2 49 91 122 34 27 76 53 93 57 50 11 47 30 -14 96 -31 33
-56 66 -56 73 0 8 -27 50 -60 94 -97 131 -85 156 99 209 147 41 282 74 391 94
58 10 166 33 240 50 247 56 383 78 493 79 53 0 67 3 67 15 0 18 -29 73 -65
125 -25 36 -213 237 -274 293 -19 18 -83 79 -142 137 -191 188 -314 297 -375
335 -17 11 -56 40 -85 63 -44 36 -59 43 -84 39 -57 -10 -415 -185 -628 -309
-65 -37 -119 -68 -120 -68 -1 0 -3 38 -4 85 -3 102 -43 232 -104 336 -22 36
-39 72 -39 80 0 8 -7 25 -16 37 -32 46 6 51 176 22 157 -27 744 -20 905 11 28
5 109 19 180 30 136 21 226 46 361 102 92 37 160 86 152 108 -3 8 -52 38 -109
66 -92 47 -162 72 -332 119 -26 7 -51 15 -56 19 -5 3 -45 12 -88 20 -43 8
-127 23 -188 35 -516 98 -808 109 -1203 45 -180 -29 -215 -31 -233 -8 -14 17
-121 69 -199 98 -229 84 -266 92 -499 105 -255 14 -443 1 -596 -41 -60 -17
-114 -34 -120 -38 -18 -12 -125 -44 -130 -39 -3 3 6 36 20 74 14 38 39 122 55
186 16 65 37 137 45 160 33 90 102 362 97 381 -2 5 8 55 22 110 13 56 31 138
40 182 18 91 24 261 10 274 -5 6 -24 2 -48 -9z m-69 -182 c-22 -13 -35 -28
-33 -35 4 -8 -3 -13 -18 -13 -20 0 -23 4 -19 23 10 45 12 47 60 47 l48 0 -38
-22z m-118 0 c-1 -23 -35 -73 -50 -74 -8 0 -24 -4 -37 -8 -13 -4 -26 -5 -29
-2 -9 8 27 46 43 46 7 0 21 11 31 25 19 26 43 33 42 13z m-253 -77 c-3 -5 -14
-11 -24 -13 -15 -4 -18 -1 -15 21 9 53 14 58 29 28 8 -15 13 -31 10 -36z m25
-61 c21 0 39 -4 39 -10 0 -5 -6 -10 -14 -10 -12 0 -51 -41 -91 -95 -13 -18
-14 -13 -15 56 0 82 5 96 27 74 8 -8 32 -15 54 -15z m297 18 c16 -16 15 -28
-1 -28 -8 0 -19 -10 -25 -22 -10 -21 -11 -20 -11 13 -1 48 12 62 37 37z m-108
-23 c0 -8 -6 -15 -14 -15 -7 0 -16 -9 -19 -20 -3 -14 -14 -20 -31 -20 -21 0
-26 5 -26 25 0 23 4 25 40 25 22 0 40 5 40 10 0 6 2 10 5 10 3 0 5 -7 5 -15z
m204 7 c2 -4 0 -14 -5 -22 -8 -13 -10 -13 -18 0 -10 15 -6 30 9 30 5 0 11 -4
14 -8z m-354 -131 c0 -32 -14 -49 -25 -31 -9 15 3 60 15 60 6 0 10 -13 10 -29z
m103 -7 c6 -6 -16 -34 -26 -34 -3 0 -7 9 -10 20 -4 14 0 20 12 20 10 0 20 -3
24 -6z m-171 -23 c26 14 28 10 13 -25 l-12 -29 -22 22 c-11 11 -21 26 -21 33
0 9 3 9 12 0 8 -8 17 -8 30 -1z m66 -235 c26 -13 56 -37 67 -52 11 -16 37 -47
58 -70 41 -45 44 -58 22 -80 -17 -17 -20 -54 -5 -54 6 0 10 8 10 17 0 12 3 14
11 6 18 -18 20 -109 4 -186 -17 -82 -73 -227 -87 -227 -5 0 -16 -15 -24 -32
-8 -18 -20 -41 -26 -50 -25 -35 3 -30 44 8 72 66 253 126 449 149 213 25 580
13 719 -24 19 -6 55 -15 80 -21 25 -7 54 -15 65 -20 11 -4 61 -20 110 -35 50
-15 107 -39 129 -53 21 -15 46 -31 56 -37 9 -5 36 -23 60 -38 23 -16 43 -27
44 -25 1 2 7 15 14 31 10 24 17 27 59 27 27 1 68 5 93 10 236 51 339 56 620
35 124 -9 252 -23 285 -30 33 -7 63 -12 66 -9 10 6 52 -54 74 -106 16 -35 20
-67 20 -150 0 -99 -2 -109 -33 -173 l-33 -67 -247 1 c-136 0 -278 4 -317 9
-38 6 -115 14 -170 20 -116 12 -168 24 -190 46 -16 16 -45 13 -45 -5 0 -6 9
-18 20 -29 18 -16 100 -137 100 -147 0 -2 13 -26 28 -52 34 -57 52 -114 29
-92 -8 8 -19 24 -25 35 -13 24 -97 54 -151 54 -58 0 -138 -28 -166 -58 -89
-96 -85 -249 9 -333 45 -40 124 -63 189 -54 60 8 117 29 117 44 0 5 6 16 13
23 43 46 67 97 68 144 l1 49 19 -40 c17 -35 19 -57 16 -175 -3 -135 -7 -156
-59 -315 -29 -89 -33 -160 -13 -225 23 -72 31 -150 16 -150 -7 0 -15 8 -18 17
-4 9 -12 24 -19 33 -50 61 -87 111 -110 145 -14 22 -37 50 -50 63 -13 13 -24
32 -24 44 0 41 -74 184 -136 265 -68 87 -107 111 -162 98 -16 -3 -48 -2 -71 4
-28 6 -53 6 -72 -1 -24 -8 -34 -7 -48 6 -10 9 -22 16 -27 14 -17 -4 -69 31
-129 86 -33 31 -66 56 -73 56 -10 0 -12 7 -8 25 5 19 2 25 -9 25 -14 0 -23 -3
-77 -31 -42 -22 -131 -13 -196 20 -33 17 -92 38 -132 47 l-71 16 -101 -52
c-100 -51 -103 -52 -172 -48 -39 3 -88 13 -109 23 -42 20 -57 14 -39 -15 10
-17 5 -25 -38 -66 -72 -69 -103 -85 -139 -74 -16 4 -66 8 -110 9 -121 1 -147
-16 -198 -127 -22 -48 -48 -109 -58 -137 -18 -48 -109 -169 -167 -223 -16 -14
-28 -33 -28 -43 0 -10 -4 -20 -9 -24 -6 -3 -20 -25 -32 -50 -12 -24 -26 -42
-32 -38 -9 5 -7 44 9 224 7 70 0 99 -51 234 -31 81 -42 186 -26 229 l12 30 23
-38 c32 -54 94 -92 161 -101 132 -16 245 73 245 193 0 49 -50 154 -81 169 -74
37 -197 47 -229 18 -16 -15 -18 -15 -24 1 -4 10 6 35 25 65 29 46 69 153 69
186 0 10 -9 13 -31 11 -36 -3 -37 -2 -76 97 -27 70 -27 71 -27 330 -1 242 1
264 21 320 88 245 107 296 133 351 32 67 56 87 140 121 72 29 120 29 178 -1z
m3126 -1545 c50 -37 111 -85 136 -105 58 -48 301 -280 393 -375 40 -40 116
-117 170 -170 104 -101 147 -161 147 -203 0 -24 -4 -25 -70 -32 -39 -3 -103
-13 -143 -21 -39 -8 -101 -19 -137 -24 -36 -6 -112 -22 -170 -35 -58 -13 -161
-36 -230 -50 -261 -56 -343 -82 -562 -184 -44 -20 -48 -42 -14 -69 25 -20 116
-160 116 -178 0 -6 25 -37 55 -68 30 -31 55 -59 55 -62 0 -3 -24 -21 -54 -40
-29 -19 -70 -53 -90 -77 l-36 -43 -25 30 c-14 17 -25 34 -25 38 0 4 -11 25
-25 45 -14 20 -25 42 -25 49 0 6 -23 48 -51 94 -28 45 -62 103 -77 128 -14 25
-28 48 -31 51 -12 9 -56 73 -66 97 -5 12 -26 39 -46 61 -64 68 -92 121 -95
182 -8 153 -2 284 16 391 41 234 46 253 60 257 8 3 37 20 64 39 26 18 52 33
56 33 4 0 37 17 71 38 35 22 134 73 219 115 256 126 315 154 319 156 2 0 44
-30 95 -68z m-2324 -89 c0 -10 -6 -12 -17 -7 -10 4 -26 7 -36 7 -9 0 -15 3
-13 7 9 14 66 9 66 -7z m45 -12 c3 -5 1 -10 -4 -10 -6 0 -11 5 -11 10 0 6 2
10 4 10 3 0 8 -4 11 -10z m-123 -10 c4 -13 34 -15 66 -5 17 6 22 3 22 -10 0
-12 -5 -15 -20 -10 -12 4 -26 2 -33 -3 -7 -5 -42 -12 -79 -15 -52 -3 -68 -2
-68 8 0 8 17 16 40 20 22 4 42 11 46 16 7 12 22 11 26 -1z m496 -64 c24 -12
102 -80 102 -88 0 -2 -12 -4 -28 -4 -15 -1 -21 1 -14 3 25 9 11 22 -18 17 -23
-5 -30 -3 -30 9 0 8 3 17 8 20 4 2 1 2 -6 0 -8 -2 -19 0 -25 4 -16 10 -34 13
-85 15 -40 1 -41 2 -26 20 21 22 83 24 122 4z m-644 -9 c-8 -4 -54 -13 -103
-19 -64 -8 -88 -15 -84 -24 2 -7 -5 -15 -16 -19 -12 -3 -21 -11 -21 -16 0 -5
-6 -9 -13 -9 -7 0 -20 -9 -30 -20 -9 -11 -23 -17 -32 -14 -9 4 -15 1 -15 -7 0
-11 -2 -11 -12 0 -11 10 -3 21 37 57 81 72 106 82 211 80 53 0 86 -4 78 -9z
m431 -45 c22 -12 48 -22 57 -22 25 0 132 -61 158 -90 16 -17 86 -65 93 -62 5
1 6 -2 2 -8 -3 -5 -1 -10 5 -10 14 0 11 -74 -8 -175 -19 -106 -12 -398 12
-465 22 -59 53 -116 89 -163 52 -67 62 -13 11 62 -13 19 -36 67 -52 106 -26
67 -27 78 -27 240 1 178 12 245 67 398 24 65 30 72 55 58 13 -6 29 -5 53 6 55
23 71 24 105 3 29 -18 36 -19 66 -6 23 10 39 11 53 4 19 -9 130 -164 153 -213
29 -61 63 -307 63 -445 -1 -119 -18 -201 -58 -275 -34 -62 -41 -98 -19 -89 18
6 82 137 95 194 10 43 25 131 27 157 0 6 4 15 9 20 5 4 6 3 2 -4 -4 -7 8 -29
26 -50 19 -21 40 -50 47 -65 8 -16 18 -28 22 -28 5 0 17 -20 28 -45 11 -24 31
-60 45 -78 14 -19 26 -39 26 -45 0 -7 4 -12 10 -12 5 0 7 -6 4 -14 -3 -8 2
-28 11 -45 9 -18 14 -35 11 -39 -5 -8 28 -151 43 -187 25 -60 63 -295 56 -350
-5 -42 -31 -156 -45 -200 -20 -61 -1 -77 63 -50 15 6 17 0 17 -63 0 -67 -22
-132 -81 -244 -13 -26 -11 -68 4 -69 6 -1 19 -1 28 0 14 2 13 -6 -8 -49 -13
-28 -30 -50 -39 -50 -11 0 -14 -6 -10 -16 7 -18 -18 -64 -70 -125 -30 -37 -38
-69 -13 -53 6 3 22 1 37 -5 24 -10 27 -16 24 -51 l-4 -40 -62 3 c-59 2 -61 1
-61 -23 0 -24 3 -25 63 -28 53 -3 62 -6 62 -22 0 -10 3 -26 7 -36 6 -15 1 -17
-49 -11 -30 4 -71 14 -91 22 -32 13 -36 19 -35 48 1 56 -20 117 -42 117 -16 0
-20 -7 -20 -36 l0 -37 -64 7 c-62 6 -63 6 -59 -17 4 -22 -1 -24 -84 -41 -121
-26 -283 -44 -312 -36 -24 6 -24 6 10 28 44 27 89 68 89 81 0 5 -9 12 -20 16
-20 6 -83 -25 -147 -73 -32 -24 -32 -24 -102 -8 -39 9 -85 16 -102 16 -31 0
-32 1 -13 15 16 12 16 14 3 15 -9 0 -24 -9 -34 -20 -10 -11 -30 -20 -44 -19
-26 0 -26 0 -3 11 30 15 28 33 -5 46 -31 12 -307 10 -335 -2 -13 -6 -15 -3
-11 12 2 10 -2 26 -11 34 -8 9 -14 17 -13 19 1 2 -13 -11 -30 -28 -18 -18 -33
-40 -33 -48 0 -8 -6 -15 -13 -15 -7 0 -13 -10 -14 -21 -1 -12 -6 -25 -10 -30
-4 -4 -55 -17 -113 -29 -58 -12 -130 -28 -160 -36 -31 -8 -58 -10 -63 -5 -15
15 105 89 149 93 31 2 39 7 39 23 0 22 -23 25 -260 39 -104 6 -132 -1 -122
-28 5 -12 21 -16 69 -16 35 0 80 -3 101 -6 30 -5 35 -9 26 -21 -7 -7 -27 -21
-45 -29 -19 -9 -34 -20 -34 -25 0 -14 -105 -10 -152 5 -24 8 -63 20 -88 26
-25 6 -75 23 -112 37 -60 23 -77 25 -155 21 -48 -3 -95 -7 -103 -9 -10 -3 -14
2 -11 16 10 47 6 69 -14 74 -77 22 -195 184 -220 301 -4 19 -15 64 -26 100
-24 82 -59 299 -59 365 0 28 12 104 26 170 14 66 34 165 45 220 33 175 51 248
79 335 39 120 60 191 66 225 3 16 14 35 25 43 10 7 19 19 19 26 0 8 11 21 26
30 14 10 28 25 32 34 11 28 66 101 80 106 8 4 12 -4 12 -24 0 -106 76 -290
121 -290 25 0 24 8 -7 53 -57 84 -64 112 -64 260 0 174 11 248 62 417 50 164
75 210 112 203 15 -3 26 -1 26 6 0 6 11 18 25 27 24 15 27 15 44 0 22 -20 37
-20 45 -1 6 15 47 19 78 7 47 -19 145 -227 163 -347 2 -11 8 -47 14 -80 22
-114 25 -303 7 -375 -28 -106 -38 -169 -32 -186 10 -27 39 21 66 111 23 74 25
95 25 290 0 225 -4 247 -62 373 -37 80 -30 109 37 154 80 54 165 97 245 123
97 33 106 34 230 31 91 -2 117 -6 150 -24z m382 -94 c-1 -10 -2 -18 -4 -18 -1
0 -7 8 -12 18 -7 14 -6 19 4 19 7 0 13 -9 12 -19z m-1651 -425 c-5 -13 -9 -13
-23 -2 -15 12 -16 12 -10 -5 7 -17 6 -17 -10 -5 -15 12 -16 12 -10 -3 3 -10 2
-18 -4 -18 -6 0 -8 -4 -5 -8 6 -10 -42 -72 -55 -72 -13 0 12 52 33 72 10 9 18
19 18 23 0 4 15 26 33 48 l32 41 3 -28 c2 -15 1 -35 -2 -43z m2279 -53 c-7
-11 17 -40 34 -40 5 0 33 -35 63 -79 29 -43 67 -96 85 -117 72 -86 113 -150
113 -173 0 -13 3 -21 7 -18 3 4 17 -7 29 -25 18 -24 21 -35 13 -45 -17 -19
-26 -16 -33 12 -4 16 -13 25 -25 25 -12 0 -21 9 -25 25 -4 14 -11 25 -16 25
-6 0 -10 7 -10 15 0 8 -4 15 -10 15 -5 0 -10 7 -10 15 0 8 -9 15 -20 15 -11 0
-20 5 -20 10 0 6 -9 19 -20 30 -10 10 -29 38 -42 61 -13 23 -29 52 -36 65 -12
22 -24 29 -46 25 -5 -1 -6 5 -3 13 3 8 -1 20 -9 26 -8 7 -14 20 -14 29 0 14
-2 14 -10 1 -8 -11 -10 -3 -8 31 1 25 -2 51 -6 57 -4 7 -1 12 9 12 9 0 13 -5
10 -10z m-2405 -78 c0 -5 -11 -18 -24 -31 -12 -12 -29 -41 -36 -64 -7 -23 -23
-55 -36 -70 -13 -16 -22 -33 -19 -37 3 -5 1 -11 -4 -14 -13 -9 -72 -133 -69
-148 2 -7 -4 -12 -12 -13 -10 0 -16 -12 -18 -33 -2 -18 -7 -30 -12 -27 -4 2
-7 -3 -6 -12 0 -11 -6 -18 -18 -18 -11 0 -21 -6 -24 -14 -3 -8 0 -11 7 -7 6 4
11 3 11 -1 0 -5 -9 -14 -20 -21 -12 -7 -18 -17 -15 -22 3 -6 -1 -7 -10 -4 -12
5 -13 9 -4 20 14 17 9 17 -26 4 -18 -7 -25 -15 -21 -25 3 -8 1 -17 -4 -20 -6
-4 -10 -15 -10 -26 0 -17 -6 -20 -32 -19 -49 3 -55 1 -62 -16 -4 -11 -2 -15 8
-11 10 4 13 1 10 -8 -7 -18 -35 -28 -47 -16 -7 7 -5 16 4 27 13 16 12 16 -7 6
-11 -6 -27 -18 -34 -27 -11 -13 -10 -15 4 -9 12 5 15 2 9 -12 -4 -12 -3 -15 6
-9 10 6 11 3 2 -14 -8 -13 -8 -21 -2 -21 7 0 7 -8 0 -23 -14 -30 -43 -32 -35
-3 5 19 3 18 -14 -4 -11 -14 -20 -31 -20 -39 0 -8 -3 -12 -6 -8 -4 3 -13 -1
-21 -9 -13 -12 -13 -17 -1 -31 11 -15 11 -16 -6 -10 -15 6 -30 -4 -65 -41 -25
-27 -55 -61 -66 -75 -11 -14 -25 -26 -31 -27 -7 0 -14 -7 -18 -15 -3 -8 -12
-15 -19 -15 -7 0 -19 -11 -26 -24 -7 -13 -24 -29 -37 -35 -13 -6 -24 -17 -24
-26 0 -8 -7 -15 -15 -15 -19 0 -65 -40 -65 -57 0 -7 -6 -13 -14 -13 -8 0 -21
-8 -28 -18 -7 -10 -25 -22 -39 -25 -17 -4 -29 -16 -33 -32 -4 -14 -13 -25 -21
-25 -8 0 -15 -7 -15 -15 0 -8 -5 -15 -11 -15 -17 0 -60 -50 -54 -61 4 -5 -5
-9 -19 -9 -16 0 -40 -15 -67 -41 -28 -27 -45 -37 -52 -30 -6 6 -19 0 -39 -20
-16 -16 -34 -29 -39 -29 -5 0 -9 -7 -9 -15 0 -8 -8 -15 -19 -15 -10 0 -24 -7
-31 -15 -7 -9 -18 -14 -24 -12 -6 2 -23 -4 -37 -14 -14 -10 -32 -19 -39 -21
-8 -2 -23 -13 -33 -25 -10 -13 -25 -23 -33 -23 -8 0 -14 -4 -14 -10 0 -5 -11
-10 -24 -10 -14 0 -28 -5 -31 -11 -4 -6 -14 -8 -22 -5 -8 3 -11 1 -8 -4 3 -6
-2 -10 -12 -10 -11 0 -24 -5 -30 -11 -7 -7 -13 -7 -17 -1 -3 6 12 23 34 39 23
15 69 48 103 73 34 25 67 47 72 49 11 3 178 100 238 138 30 19 41 22 53 12 13
-11 18 -6 15 14 -1 5 8 6 19 2 21 -7 28 10 8 18 -10 4 -9 8 2 16 21 15 30 13
24 -4 -4 -8 -1 -15 5 -15 6 0 10 3 10 8 -5 28 3 52 17 52 8 0 12 -4 9 -10 -3
-5 -1 -10 5 -10 7 0 9 8 5 20 -4 12 -2 20 5 20 6 0 13 8 17 18 7 19 16 30 70
87 21 23 76 83 123 134 47 51 108 114 135 140 88 84 189 177 230 212 53 46
131 126 164 169 14 19 35 45 46 57 11 13 30 35 43 50 12 16 32 40 45 55 57 69
80 97 123 155 25 35 58 72 74 83 16 11 27 26 24 34 -3 7 9 27 26 44 16 18 30
36 30 42 0 5 5 10 10 10 6 0 10 -4 10 -8z m2780 -444 c0 -6 7 -20 17 -30 13
-15 14 -22 4 -40 -6 -13 -10 -16 -8 -8 6 19 -19 45 -26 27 -2 -7 -7 3 -11 20
-4 18 -5 37 -1 43 8 12 25 4 25 -12z m-70 -182 c0 -8 7 -19 15 -26 8 -7 21
-24 28 -39 7 -14 21 -38 30 -52 16 -24 16 -27 -2 -43 -18 -16 -19 -16 -25 18
-4 19 -11 36 -16 38 -9 3 -50 102 -50 121 0 4 5 5 10 2 6 -3 10 -12 10 -19z
m-3160 -56 c0 -5 -5 -10 -11 -10 -5 0 -7 5 -4 10 3 6 8 10 11 10 2 0 4 -4 4
-10z m3370 2 c0 -4 -5 -13 -12 -20 -9 -9 -9 -15 0 -24 18 -18 15 -27 -8 -25
-11 1 -20 1 -20 2 0 0 4 14 9 32 7 22 6 33 -2 37 -7 2 -2 5 11 5 12 1 22 -3
22 -7z m52 -107 c12 -26 4 -46 -11 -29 -5 5 -12 19 -16 32 -9 31 12 29 27 -3z
m-112 -90 c0 -6 -8 -19 -17 -27 -37 -32 -44 -29 -24 8 25 46 26 54 5 54 -9 0
-12 5 -8 12 8 13 44 -25 44 -47z m150 18 c0 -7 5 -13 10 -13 6 0 10 -8 10 -18
0 -10 5 -23 11 -29 8 -8 8 -17 -1 -32 -6 -12 -9 -27 -6 -34 2 -7 5 -5 5 4 2
28 28 29 40 3 13 -29 15 -45 3 -26 -14 22 -40 4 -34 -24 3 -19 7 -22 13 -12 7
11 9 11 9 -1 0 -11 3 -11 15 -1 12 10 19 10 27 2 9 -9 7 -12 -7 -12 -11 0 -29
-7 -39 -15 -26 -20 -42 -19 -50 3 -3 9 -9 24 -14 32 -29 50 -36 71 -37 126 -2
59 -1 62 21 60 13 0 24 -7 24 -13z m-129 -100 c-14 -10 -17 -8 -22 15 -8 39 0
46 21 20 16 -21 16 -23 1 -35z m271 -154 c-24 -11 -49 -18 -55 -16 -18 6 44
36 73 36 21 0 17 -3 -18 -20z m248 -134 c7 -9 11 -17 9 -18 -9 -6 -76 -30
-104 -37 -16 -4 -23 -8 -14 -9 20 -1 33 -28 18 -37 -6 -3 -7 -19 -4 -35 5 -24
4 -28 -9 -23 -9 3 -16 14 -16 24 0 18 -24 43 -52 53 -30 11 -20 21 43 47 33
14 65 31 71 38 14 17 43 15 58 -3z m77 -121 c50 -48 52 -44 -22 -48 -11 -1
-28 5 -37 13 -15 11 -18 11 -18 1 0 -7 -3 -10 -6 -7 -4 4 -1 14 7 24 9 11 10
14 2 9 -8 -4 -13 -2 -13 4 0 7 -14 10 -34 9 -52 -5 -54 8 -7 30 54 24 70 19
128 -35z m-170 -84 c0 -10 -6 -16 -13 -13 -6 2 -11 15 -10 28 1 17 4 21 13 13
6 -5 11 -18 10 -28z m228 -77 l35 -53 -26 -16 c-32 -22 -40 -14 -69 69 -17 49
-20 68 -11 77 12 12 11 13 71 -77z m-86 -49 c16 -52 37 -78 60 -71 42 13 87
33 92 41 8 10 29 -1 29 -15 0 -16 -82 -49 -122 -49 -33 0 -41 5 -62 38 -14 20
-34 48 -45 62 l-20 25 22 7 c12 3 24 6 27 7 3 1 12 -19 19 -45z m-132 -16 c-3
-8 -6 -5 -6 6 -1 11 2 17 5 13 3 -3 4 -12 1 -19z m75 -20 c13 -18 29 -43 36
-57 14 -28 16 -71 2 -71 -5 0 -10 6 -10 13 0 7 -16 39 -35 71 -19 32 -35 62
-35 67 0 19 20 8 42 -23z m238 -72 c0 -11 -128 -76 -151 -76 -8 0 -14 39 -6
40 1 0 34 11 72 25 85 28 85 28 85 11z m-3682 -363 c28 -7 28 -13 -7 -70 -16
-27 -32 -59 -36 -73 -20 -66 -68 -94 -77 -46 -4 20 3 31 39 56 28 20 43 38 41
49 -5 23 -60 18 -99 -9 -28 -20 -30 -21 -21 -4 6 10 30 41 53 67 34 37 48 47
64 42 11 -4 30 -9 43 -12z m2786 -38 c19 -14 19 -15 -7 -15 -17 0 -27 5 -27
15 0 19 9 19 34 0z m-1234 -53 c0 -5 -46 -10 -102 -11 -57 0 -122 -4 -145 -7
-28 -4 -43 -2 -43 4 0 6 27 12 63 14 157 8 227 8 227 0z m-353 -22 c-3 -21
-17 -40 -17 -22 0 13 11 42 16 42 2 0 3 -9 1 -20z m1652 -25 c19 -19 15 -21
-42 -28 -51 -5 -66 6 -53 39 5 13 14 15 44 9 20 -3 43 -13 51 -20z m-2581 9
c35 -10 26 -37 -18 -56 -44 -18 -53 -13 -65 35 -7 25 -5 27 26 27 19 0 44 -3
57 -6z m-140 -35 c3 -23 -1 -27 -35 -32 -21 -4 -53 -9 -72 -13 l-33 -7 16 32
c12 22 24 31 41 31 13 0 27 5 30 11 13 20 50 5 53 -22z m1077 -8 c-3 -11 -7
-47 -8 -79 -1 -60 -1 -60 -16 -31 l-14 30 -22 -23 c-12 -13 -20 -26 -18 -30 6
-12 -6 -9 -20 4 -10 9 -7 23 15 69 27 56 48 78 76 79 9 0 11 -7 7 -19z m1155
10 c0 -17 -55 -28 -105 -21 l-50 6 40 8 c22 4 47 9 55 11 32 6 60 5 60 -4z
m-422 -30 c3 -8 0 -11 -6 -7 -5 3 -13 -1 -16 -9 -4 -11 -13 -14 -31 -9 -21 5
-27 2 -32 -15 -3 -11 -12 -21 -19 -21 -8 0 -14 -4 -14 -10 0 -5 -7 -7 -15 -4
-8 4 -15 1 -15 -5 0 -6 5 -11 11 -11 5 0 7 -5 3 -11 -9 -16 -25 11 -18 33 4
12 0 15 -16 11 -22 -6 -28 11 -7 21 6 4 30 17 52 30 45 27 115 31 123 7z
m-495 3 c42 -4 74 -11 71 -15 -3 -5 -1 -9 5 -9 5 0 12 6 14 13 3 6 6 3 6 -8 1
-19 -5 -20 -99 -18 -55 1 -114 -3 -131 -9 -34 -12 -49 -1 -49 35 0 19 46 22
183 11z m-1613 -14 c0 -5 -4 -10 -10 -10 -5 0 -10 5 -10 10 0 6 5 10 10 10 6
0 10 -4 10 -10z m748 -6 c15 -5 14 -7 -8 -19 -37 -21 -48 -18 -43 9 3 15 10
23 19 20 8 -2 22 -7 32 -10z m-133 -24 c3 -5 -1 -10 -9 -10 -9 0 -16 5 -16 10
0 6 4 10 9 10 6 0 13 -4 16 -10z m1805 -6 c0 -8 -4 -12 -10 -9 -5 3 -10 10
-10 16 0 5 5 9 10 9 6 0 10 -7 10 -16z m-1358 -1 c-6 -2 -9 -10 -6 -15 4 -7 2
-8 -5 -4 -13 9 -5 26 12 25 9 0 8 -2 -1 -6z m-389 -13 c7 0 6 -4 -3 -10 -21
-14 -27 -12 -34 6 -5 12 -2 15 10 10 8 -3 21 -6 27 -6z m-1158 -30 c-3 -5 -21
-10 -38 -9 -31 1 -31 1 -7 9 36 11 52 11 45 0z m2680 -40 c3 -5 1 -10 -4 -10
-6 0 -11 5 -11 10 0 6 2 10 4 10 3 0 8 -4 11 -10z m-2445 -23 c20 -10 26 -21
28 -54 5 -61 -23 -76 -150 -81 -65 -3 -103 -1 -111 7 -8 8 10 11 70 11 66 0
82 3 87 17 11 27 -6 33 -97 35 -47 1 -92 5 -99 10 -8 5 27 8 87 6 94 -3 100
-2 100 17 0 18 -8 20 -80 23 -54 2 -75 6 -65 12 22 14 201 12 230 -3z"/>
<path d="M2233 4200 c-25 -13 -59 -44 -85 -78 -39 -53 -43 -62 -46 -128 -4
-76 6 -106 50 -155 28 -32 65 -46 141 -53 78 -8 134 8 180 52 44 42 57 82 57
172 0 88 -27 128 -112 169 -88 42 -133 47 -185 21z m31 -86 c21 -21 20 -41 -3
-54 -34 -18 -68 -12 -74 12 -7 26 -1 37 27 48 30 12 33 12 50 -6z"/>
<path d="M3620 4152 c-49 -50 -58 -66 -69 -119 -23 -109 1 -182 72 -220 23
-13 56 -17 122 -17 99 0 129 10 180 63 27 29 29 37 29 104 0 47 -6 83 -16 102
-27 50 -91 104 -148 125 -88 32 -106 28 -170 -38z m60 -47 c17 -20 5 -62 -20
-70 -44 -14 -70 58 -27 75 31 12 33 12 47 -5z"/>
<path d="M2963 4000 c-25 -10 -26 -11 -17 -34 7 -18 55 -21 85 -6 25 14 25 40
0 40 -11 0 -25 2 -33 4 -7 3 -23 1 -35 -4z"/>
<path d="M3028 913 c-21 -5 -23 -14 -6 -31 18 -18 1 -27 -19 -11 -16 13 -17
12 -4 -3 18 -24 66 -23 91 2 25 25 26 40 1 40 -11 0 -25 2 -33 4 -7 2 -21 2
-30 -1z"/>
<path d="M3135 896 c-17 -12 -17 -13 8 -20 14 -3 33 -3 41 0 15 6 15 8 -1 20
-23 17 -25 17 -48 0z"/>
<path d="M2851 764 c0 -11 3 -14 6 -6 3 7 2 16 -1 19 -3 4 -6 -2 -5 -13z"/>
<path d="M2770 740 c0 -5 7 -10 16 -10 8 0 12 5 9 10 -3 6 -10 10 -16 10 -5 0
-9 -4 -9 -10z"/>
<path d="M4805 2010 c-3 -6 1 -7 9 -4 18 7 21 14 7 14 -6 0 -13 -4 -16 -10z"/>
<path d="M4825 1970 c3 -5 8 -10 11 -10 2 0 4 5 4 10 0 6 -5 10 -11 10 -5 0
-7 -4 -4 -10z"/>
<path d="M1705 6000 c-3 -6 -3 -19 0 -30 6 -19 2 -20 -79 -20 -68 0 -86 -3
-86 -14 0 -23 19 -29 82 -29 32 0 58 -3 58 -8 0 -5 -4 -9 -9 -9 -5 0 -25 -25
-44 -55 -34 -55 -35 -55 -40 -27 -3 16 -20 43 -37 62 -28 30 -34 32 -77 27
-32 -3 -53 -12 -64 -26 -26 -31 -42 -125 -36 -205 4 -60 8 -73 31 -93 30 -26
79 -30 121 -11 34 15 65 76 65 127 0 28 4 39 13 36 17 -7 27 3 70 69 27 41 37
66 34 83 -4 24 -3 25 37 19 34 -5 138 -17 156 -18 22 -1 30 5 30 26 0 23 -4
25 -69 32 -77 7 -80 8 -104 47 -18 27 -41 35 -52 17z m-182 -183 c9 -14 15
-48 16 -88 1 -77 -24 -129 -63 -129 -30 0 -42 15 -51 61 -7 39 19 159 38 171
22 14 45 8 60 -15z"/>
<path d="M984 5986 c-4 -9 -2 -29 4 -44 21 -57 35 -112 30 -117 -2 -3 -32 -8
-66 -11 l-62 -7 0 36 c0 34 1 35 35 34 40 -1 58 12 50 35 -8 20 -158 61 -205
56 -27 -2 -35 -8 -35 -22 0 -14 12 -23 48 -33 l47 -14 0 -49 0 -49 -54 -11
c-63 -13 -85 -32 -65 -56 7 -8 22 -13 33 -11 12 3 36 8 54 12 l32 7 0 -56 0
-55 -50 -23 c-55 -25 -65 -38 -46 -63 11 -16 15 -16 50 -1 21 9 42 16 47 16 4
0 9 -26 11 -57 3 -54 5 -58 28 -58 24 0 25 3 28 72 l3 71 37 17 c61 27 67 31
70 54 5 29 -18 35 -63 17 -53 -22 -55 -21 -55 28 0 34 4 46 18 50 22 7 131 11
135 5 8 -10 57 -131 57 -141 0 -5 -12 -19 -26 -31 -31 -24 -84 -95 -84 -112 0
-7 7 -16 16 -19 12 -5 34 12 74 55 49 52 59 59 64 43 3 -11 26 -41 51 -69 42
-45 47 -48 62 -33 17 18 19 14 -51 118 l-28 43 46 42 c32 30 46 51 46 69 0 32
-17 27 -78 -22 -23 -19 -44 -33 -45 -31 -2 2 -11 21 -21 42 -27 59 -18 67 67
67 55 0 78 4 87 15 7 9 10 19 6 23 -4 4 -53 9 -109 12 l-101 5 -21 80 c-18 66
-25 81 -43 83 -13 2 -25 -3 -28 -12z"/>
<path d="M2901 5934 c-22 -36 -41 -67 -41 -70 0 -3 -11 -30 -25 -61 -20 -43
-23 -58 -14 -69 18 -22 26 -17 60 39 28 45 40 55 83 70 28 9 54 13 58 9 21
-21 44 -292 30 -344 -2 -11 -14 -18 -27 -18 -34 0 -50 -24 -30 -44 19 -18 48
-21 75 -6 23 12 40 68 40 133 l0 49 65 -7 c55 -6 66 -5 71 10 4 9 2 21 -3 26
-14 14 -81 31 -114 31 -26 -1 -27 0 -34 90 -8 111 -1 118 83 92 14 -4 16 -42
3 -63 -21 -33 23 -57 48 -27 18 21 24 77 12 108 -18 47 -135 61 -253 30 l-37
-10 18 37 c21 41 18 61 -9 61 -11 0 -33 -24 -59 -66z"/>
<path d="M3610 5970 c-23 -32 -60 -128 -60 -156 0 -15 -2 -15 -26 1 -22 14
-39 16 -100 10 -93 -8 -96 -14 -102 -161 l-4 -112 35 -38 c34 -38 37 -39 100
-38 70 0 111 23 135 73 17 35 15 152 -3 194 -12 29 -12 38 -2 44 7 4 20 20 30
35 29 46 153 70 184 36 9 -10 18 -39 21 -66 4 -47 -21 -221 -39 -269 -14 -36
-11 -60 8 -67 41 -16 68 55 83 219 11 114 7 164 -18 207 -24 42 -53 52 -131
45 l-70 -6 2 36 c3 46 -15 52 -43 13z m-112 -206 c19 -9 32 -23 32 -34 0 -10
5 -22 10 -25 13 -8 13 -84 -1 -124 -7 -19 -22 -36 -36 -42 -30 -11 -84 -11
-102 0 -14 9 -33 90 -25 103 3 5 27 8 54 8 27 0 52 5 55 10 12 19 -17 40 -55
40 -74 0 -51 72 26 79 6 1 25 -6 42 -15z"/>
<path d="M4968 5978 c-6 -13 -14 -41 -17 -63 -5 -36 -11 -42 -53 -62 -27 -13
-48 -29 -48 -37 0 -20 38 -30 55 -16 18 15 35 5 35 -20 0 -32 -11 -50 -32 -50
-28 0 -58 -18 -58 -35 0 -22 38 -39 56 -25 22 19 44 4 44 -29 0 -16 5 -33 10
-36 18 -11 11 -22 -25 -39 -38 -18 -71 -59 -60 -76 10 -16 48 -11 75 10 32 25
57 25 65 0 8 -25 55 -50 94 -50 47 0 79 19 86 51 12 52 -21 68 -49 24 -21 -32
-46 -32 -80 0 -32 29 -28 38 24 65 52 26 75 59 56 78 -15 15 -13 16 -96 -31
-17 -10 -33 -17 -35 -15 -2 2 -5 18 -7 37 l-3 34 70 16 c80 19 95 27 95 46 0
20 -26 25 -81 15 -81 -16 -89 -14 -89 19 0 33 8 37 80 47 54 7 74 22 64 49 -6
14 -15 16 -56 11 -26 -4 -56 -10 -64 -13 -15 -5 -16 0 -10 41 10 67 -19 101
-46 54z"/>
<path d="M5092 5988 c-7 -7 -12 -17 -12 -23 0 -18 80 -77 96 -71 26 10 15 44
-25 75 -44 35 -43 35 -59 19z"/>
<path d="M1100 5960 c0 -25 41 -62 94 -86 37 -17 39 -17 51 0 20 26 11 38 -55
74 -70 37 -90 40 -90 12z"/>
<path d="M4175 5968 c-33 -6 -82 -11 -108 -12 -30 -1 -51 -6 -57 -16 -11 -16
-12 -387 -1 -435 5 -23 12 -31 34 -33 25 -3 27 -1 27 31 0 30 4 35 30 41 17 3
29 9 28 13 -4 12 23 73 33 73 5 0 18 -13 30 -29 14 -19 27 -27 39 -24 17 5 18
2 7 -32 -9 -29 -8 -38 3 -45 23 -14 43 5 78 74 19 36 37 66 41 66 4 0 25 -18
46 -41 35 -35 40 -46 40 -87 0 -40 3 -47 20 -47 11 0 25 11 32 26 14 29 31
152 39 274 6 97 -9 134 -74 180 -40 28 -51 30 -135 32 -51 1 -119 -3 -152 -9z
m263 -75 c38 -36 44 -62 36 -179 l-7 -96 -39 42 c-21 24 -38 44 -38 45 0 1 16
29 35 61 36 59 43 88 25 99 -15 9 -35 -10 -72 -66 l-31 -48 -29 24 c-16 14
-40 25 -53 25 -20 0 -23 5 -21 32 1 23 -4 33 -16 36 -10 2 -18 -1 -18 -7 0
-20 -55 -100 -69 -101 -8 0 -12 3 -8 6 7 7 -39 47 -65 57 -10 3 -18 15 -18 25
0 52 57 69 241 71 114 1 117 0 147 -26z m-144 -245 c-23 -46 -44 -69 -44 -48
0 6 -11 28 -25 50 -29 46 -30 50 -11 94 l14 34 45 -41 44 -42 -23 -47z m-200
78 c25 -33 25 -35 10 -73 -8 -21 -20 -48 -27 -61 -10 -22 -12 -22 -18 -5 -10
23 -11 158 -2 166 9 10 8 11 37 -27z"/>
<path d="M4732 5938 c-47 -45 -92 -129 -92 -171 0 -15 9 -32 20 -40 20 -14 20
-16 4 -56 -13 -33 -14 -47 -6 -67 10 -20 19 -24 57 -24 61 0 145 36 145 62 0
29 -24 32 -85 9 -44 -17 -55 -18 -55 -7 0 8 6 21 13 28 59 62 108 130 103 143
-8 22 -25 18 -75 -15 -24 -17 -48 -30 -53 -30 -21 0 -4 40 42 99 78 99 65 150
-18 69z"/>
<path d="M5581 5971 c-15 -10 -43 -211 -45 -321 -1 -49 1 -55 21 -58 31 -5 39
17 58 163 9 72 19 144 21 161 4 21 1 36 -11 47 -19 19 -24 20 -44 8z"/>
<path d="M3420 5935 c-41 -8 -76 -14 -77 -14 -2 -1 -3 -12 -3 -26 0 -33 18
-33 178 1 17 3 22 10 20 27 -4 27 -20 29 -118 12z"/>
<path d="M2790 5913 c-106 -69 -130 -88 -128 -102 2 -10 16 -17 34 -19 l31 -3
8 -128 c3 -70 10 -133 14 -140 5 -7 19 -11 32 -9 27 3 27 -11 6 183 l-15 130
23 18 c69 53 70 54 56 71 -17 20 -29 20 -61 -1z"/>
<path d="M1777 5868 c-5 -18 3 -48 14 -48 5 0 17 -8 27 -17 54 -54 112 -70
112 -30 0 17 -16 34 -63 65 -67 45 -83 50 -90 30z"/>
<path d="M1799 5713 c-25 -27 -55 -61 -67 -77 l-23 -30 -43 22 c-36 17 -47 18
-61 9 -23 -17 -11 -41 31 -61 l36 -16 -46 -51 c-38 -42 -44 -54 -36 -70 6 -10
15 -19 20 -19 5 0 32 24 61 53 29 30 58 51 68 49 9 -2 38 -15 65 -28 27 -14
66 -26 85 -27 30 -2 36 1 36 18 0 14 -20 29 -78 58 l-79 39 19 21 c54 61 90
124 81 140 -13 25 -21 22 -69 -30z"/>
<path d="M2913 5738 c-20 -26 -43 -87 -58 -153 -15 -61 -15 -70 -1 -83 14 -14
17 -14 36 3 11 10 20 24 20 31 0 8 12 47 26 88 14 41 24 85 22 98 -3 26 -30
35 -45 16z"/>
<path d="M3624 5696 c-11 -28 2 -41 71 -70 61 -27 68 -28 83 -13 15 15 14 19
-12 46 -15 16 -40 31 -56 34 -15 4 -39 9 -54 13 -19 4 -27 2 -32 -10z"/>
<path d="M4788 5555 c-3 -4 -34 -13 -69 -21 -70 -16 -90 -29 -82 -50 15 -40
219 12 211 54 -3 17 -48 29 -60 17z"/>
<path d="M5486 5545 c-10 -28 16 -53 76 -71 54 -16 60 -16 75 -2 20 21 11 33
-47 63 -56 28 -95 32 -104 10z"/>
<path d="M1201 3817 c-39 -63 -57 -221 -40 -344 6 -43 14 -82 18 -86 7 -7 68
317 78 416 4 42 3 47 -15 47 -12 0 -29 -13 -41 -33z"/>
<path d="M1321 3623 c-24 -26 -38 -113 -35 -215 4 -137 18 -198 56 -237 55
-56 61 -34 27 88 -21 75 -22 121 -6 346 2 34 -20 44 -42 18z"/>
<path d="M5542 1243 c-5 -10 -15 -36 -22 -58 -7 -22 -17 -45 -21 -51 -6 -7 -4
-24 4 -43 10 -24 16 -28 25 -19 15 15 16 32 2 23 -5 -3 -10 1 -10 10 0 11 5
15 14 12 25 -10 49 30 54 88 4 51 3 55 -16 55 -12 0 -25 -8 -30 -17z"/>
<path d="M5610 1129 c-6 -11 -10 -32 -8 -47 2 -20 -1 -26 -13 -24 -15 2 -32
-22 -44 -65 -4 -13 -2 -23 3 -23 15 0 34 28 27 40 -3 5 -3 15 1 21 5 8 8 8 14
0 11 -18 57 24 70 64 6 19 9 39 5 45 -11 17 -44 11 -55 -11z"/>
<path d="M5481 1074 c0 -11 3 -14 6 -6 3 7 2 16 -1 19 -3 4 -6 -2 -5 -13z"/>
<path d="M5045 853 c-116 -4 -135 -8 -135 -33 0 -20 6 -20 168 -18 162 3 167
4 170 24 3 25 -22 35 -78 32 -19 -1 -75 -3 -125 -5z"/>
<path d="M5657 825 c-16 -16 -19 -32 -38 -190 -15 -138 -11 -169 23 -173 24
-3 27 1 37 45 6 26 16 108 23 181 10 115 10 135 -3 143 -19 12 -25 11 -42 -6z"/>
<path d="M5010 781 c-73 -8 -110 -32 -110 -71 0 -52 35 -65 175 -65 139 0 175
13 175 63 0 46 -19 62 -90 72 -36 5 -72 9 -80 8 -8 0 -40 -4 -70 -7z m188 -56
c3 -2 2 -11 -2 -20 -8 -23 -241 -18 -241 5 0 11 14 16 50 20 53 5 186 2 193
-5z"/>
<path d="M4746 755 c-9 -24 42 -75 75 -75 18 0 29 5 29 14 0 25 -12 46 -25 46
-7 0 -18 7 -25 15 -16 19 -46 19 -54 0z"/>
<path d="M4313 618 c-4 -7 -8 -22 -8 -33 0 -18 -8 -20 -85 -25 -98 -6 -115
-12 -100 -41 8 -14 21 -19 50 -19 47 0 51 -12 13 -37 -43 -28 -82 -76 -83
-100 0 -35 33 -29 73 12 40 41 47 43 47 11 0 -54 105 -87 200 -64 25 6 84 12
132 12 47 1 90 4 94 8 12 13 -15 36 -50 42 l-33 6 5 54 4 53 -42 21 -42 21 38
6 c55 9 86 23 82 38 -6 17 -45 21 -103 9 -27 -6 -69 -14 -93 -17 -41 -7 -43
-6 -53 24 -11 32 -32 40 -46 19z m83 -123 c-22 -34 -20 -48 13 -84 15 -16 26
-33 23 -36 -11 -11 -140 -5 -150 8 -11 13 1 105 16 118 10 10 41 16 81 18 33
1 33 1 17 -24z m115 -31 c9 -11 10 -20 3 -32 -15 -24 -28 -25 -55 -3 -20 16
-21 21 -10 35 17 20 45 21 62 0z"/>
<path d="M4980 613 c-85 -5 -100 -21 -100 -108 0 -74 23 -107 90 -125 23 -6
40 -13 38 -16 -3 -2 -34 -6 -69 -8 -65 -4 -125 12 -141 37 -5 7 -5 51 -2 100
6 83 6 87 -14 87 -26 0 -32 -18 -39 -117 l-6 -82 37 -35 c30 -30 45 -36 84
-38 124 -6 197 6 226 36 11 12 41 28 66 35 61 18 110 69 110 114 0 54 -15 82
-52 100 -37 17 -132 26 -228 20z m204 -64 c36 -28 33 -73 -7 -103 -24 -17 -43
-21 -111 -21 -90 0 -136 16 -136 47 0 13 7 18 28 18 34 0 49 -10 53 -35 6 -27
32 -25 44 2 6 14 20 23 40 25 22 2 31 9 33 25 3 18 -3 22 -37 28 -25 4 -41 12
-41 21 0 24 101 19 134 -7z m-184 1 c0 -5 -16 -10 -36 -10 -21 0 -33 4 -29 10
3 6 19 10 36 10 16 0 29 -4 29 -10z"/>
<path d="M2415 550 c-24 -4 -26 -7 -12 -12 9 -4 17 -17 17 -28 0 -14 7 -20 23
-20 18 0 19 2 7 10 -8 5 -10 10 -4 10 16 0 25 38 10 42 -6 3 -24 2 -41 -2z"/>
<path d="M2486 544 c-9 -8 -16 -20 -16 -25 0 -12 17 -12 25 1 4 6 10 8 15 5
15 -9 19 9 5 22 -11 10 -17 10 -29 -3z"/>
<path d="M2375 520 c3 -5 8 -10 11 -10 2 0 4 5 4 10 0 6 -5 10 -11 10 -5 0 -7
-4 -4 -10z"/>
<path d="M3123 522 c-46 -7 -37 -31 36 -92 30 -25 38 -25 50 -1 8 14 7 22 -5
32 -10 8 -12 15 -4 23 16 16 12 29 -6 22 -9 -4 -24 -1 -33 7 -9 7 -26 11 -38
9z"/>
<path d="M2365 491 c-3 -5 -1 -12 5 -16 5 -3 10 1 10 9 0 18 -6 21 -15 7z"/>
<path d="M5574 415 c-13 -33 24 -65 91 -78 45 -8 62 5 47 37 -6 14 -18 26 -26
26 -7 0 -27 7 -42 15 -37 19 -63 19 -70 0z"/>
<path d="M3165 240 c3 -5 8 -10 11 -10 2 0 4 5 4 10 0 6 -5 10 -11 10 -5 0 -7
-4 -4 -10z"/>
<path d="M1598 3 c882 -2 2322 -2 3200 0 878 1 157 2 -1603 2 -1760 0 -2479
-1 -1597 -2z"/>
</g>
</svg>
